<svg width="50" height="50" viewBox="0 0 50 50" fill="none" xmlns="http://www.w3.org/2000/svg">
<circle cx="25.0289" cy="24.6602" r="24.6602" fill="#956D84"/>
<g clip-path="url(#clip0_95_5785)">
<path d="M26.5702 36.2196H22.8534C22.2326 36.2196 21.7275 35.7146 21.7275 35.0938V26.7103H19.5591C18.9382 26.7103 18.4332 26.2051 18.4332 25.5845V21.9922C18.4332 21.3713 18.9382 20.8663 19.5591 20.8663H21.7275V19.0674C21.7275 17.2837 22.2876 15.7662 23.3471 14.6791C24.4113 13.5871 25.8985 13.01 27.6481 13.01L30.4827 13.0146C31.1024 13.0157 31.6066 13.5207 31.6066 14.1405V17.4758C31.6066 18.0967 31.1017 18.6017 30.4811 18.6017L28.5726 18.6024C27.9905 18.6024 27.8423 18.7191 27.8106 18.7549C27.7584 18.8142 27.6962 18.9819 27.6962 19.4449V20.8661H30.3376C30.5365 20.8661 30.7292 20.9152 30.8947 21.0076C31.2519 21.2072 31.4739 21.5845 31.4739 21.9923L31.4725 25.5847C31.4725 26.2051 30.9675 26.7101 30.3467 26.7101H27.6962V35.0938C27.6962 35.7146 27.191 36.2196 26.5702 36.2196ZM23.0882 34.859H26.3354V26.1012C26.3354 25.6867 26.6727 25.3495 27.0871 25.3495H30.1119L30.1131 22.227H27.0869C26.6725 22.227 26.3354 21.8898 26.3354 21.4753V19.4449C26.3354 18.9133 26.3894 18.3088 26.7907 17.8544C27.2755 17.3051 28.0396 17.2418 28.5722 17.2418L30.2459 17.241V14.3749L27.647 14.3707C24.8354 14.3707 23.0882 16.1704 23.0882 19.0674V21.4753C23.0882 21.8896 22.751 22.227 22.3367 22.227H19.7939V25.3495H22.3367C22.751 25.3495 23.0882 25.6867 23.0882 26.1012V34.859ZM30.48 14.3753H30.4802H30.48Z" fill="white"/>
</g>
<defs>
<clipPath id="clip0_95_5785">
<rect width="23.1643" height="23.2096" fill="white" transform="translate(13.4241 13.0554)"/>
</clipPath>
</defs>
</svg>
