<svg width="41" height="28" viewBox="0 0 41 28" fill="none" xmlns="http://www.w3.org/2000/svg">
<path d="M12.7241 28C12.3618 28 12.0126 27.8701 11.7404 27.6342C10.7123 26.7449 9.72114 25.9091 8.84667 25.1718L8.8422 25.168C6.27839 23.0064 4.06444 21.1397 2.52401 19.3008C0.802054 17.245 0 15.2959 0 13.1666C0 11.0978 0.717014 9.18918 2.01882 7.79211C3.33616 6.37852 5.14375 5.59998 7.10918 5.59998C8.57815 5.59998 9.92345 6.05945 11.1076 6.96554C11.7052 7.42291 12.2469 7.98266 12.7241 8.63557C13.2016 7.98266 13.7431 7.42291 14.3409 6.96554C15.525 6.05945 16.8703 5.59998 18.3393 5.59998C20.3045 5.59998 22.1123 6.37852 23.4296 7.79211C24.7315 9.18918 25.4483 11.0978 25.4483 13.1666C25.4483 15.2959 24.6464 17.245 22.9245 19.3006C21.384 21.1397 19.1703 23.0062 16.6068 25.1676C15.7308 25.906 14.7381 26.7431 13.7077 27.6346C13.4357 27.8701 13.0862 28 12.7241 28ZM7.10918 7.07484C5.56506 7.07484 4.14657 7.68454 3.11463 8.79174C2.06736 9.91566 1.49053 11.4693 1.49053 13.1666C1.49053 14.9574 2.16327 16.5591 3.67166 18.3597C5.12957 20.1003 7.29809 21.9286 9.8089 24.0456L9.81356 24.0495C10.6913 24.7896 11.6864 25.6286 12.722 26.5245C13.7638 25.6269 14.7604 24.7865 15.64 24.0452C18.1506 21.9282 20.3189 20.1003 21.7768 18.3597C23.285 16.5591 23.9577 14.9574 23.9577 13.1666C23.9577 11.4693 23.3809 9.91566 22.3336 8.79174C21.3019 7.68454 19.8832 7.07484 18.3393 7.07484C17.2081 7.07484 16.1696 7.43059 15.2526 8.13211C14.4354 8.75755 13.8662 9.54819 13.5324 10.1014C13.3608 10.3859 13.0587 10.5557 12.7241 10.5557C12.3896 10.5557 12.0875 10.3859 11.9159 10.1014C11.5823 9.54819 11.0131 8.75755 10.1957 8.13211C9.27866 7.43059 8.24013 7.07484 7.10918 7.07484Z" fill="#956D84"/>
<ellipse opacity="0.7" cx="29.6896" cy="11.2" rx="11.3103" ry="11.2" fill="#956D84"/>
<path d="M32.1482 8.652C32.1482 9.06 32.0722 9.472 31.9202 9.888C31.7762 10.304 31.5882 10.712 31.3562 11.112C31.1322 11.512 30.8802 11.9 30.6002 12.276C30.3282 12.644 30.0602 12.984 29.7962 13.296L29.1602 13.788V13.848L30.0242 13.68H32.3282V15H27.2762V14.196C27.4682 13.996 27.6842 13.764 27.9242 13.5C28.1642 13.228 28.4042 12.944 28.6442 12.648C28.8922 12.344 29.1322 12.032 29.3642 11.712C29.5962 11.392 29.8042 11.072 29.9882 10.752C30.1722 10.424 30.3162 10.108 30.4202 9.804C30.5322 9.5 30.5882 9.212 30.5882 8.94C30.5882 8.612 30.4922 8.344 30.3002 8.136C30.1162 7.92 29.8202 7.812 29.4122 7.812C29.1562 7.812 28.8922 7.868 28.6202 7.98C28.3562 8.084 28.1322 8.22 27.9482 8.388L27.3242 7.284C27.6362 7.028 27.9882 6.824 28.3802 6.672C28.7802 6.512 29.2482 6.432 29.7842 6.432C30.1282 6.432 30.4442 6.48 30.7322 6.576C31.0202 6.672 31.2682 6.812 31.4762 6.996C31.6842 7.18 31.8482 7.412 31.9682 7.692C32.0882 7.964 32.1482 8.284 32.1482 8.652Z" fill="#414141"/>
</svg>
