<svg width="50" height="50" viewBox="0 0 50 50" fill="none" xmlns="http://www.w3.org/2000/svg">
<circle cx="24.9537" cy="24.6602" r="24.6602" fill="#956D84"/>
<path d="M25.2938 10.4354C19.8072 10.4354 14.5971 9.95707 12.6071 14.9625C11.7851 17.0298 11.9044 19.7146 11.9044 23.559C11.9044 26.9324 11.7941 30.103 12.6071 32.154C14.5926 37.1624 19.8449 36.6825 25.2907 36.6825C30.5446 36.6825 35.9617 37.2186 37.9759 32.154C38.7995 30.066 38.6786 27.4211 38.6786 23.559C38.6786 18.4322 38.9672 15.1224 36.4301 12.6375C33.8614 10.12 30.3875 10.4354 25.2877 10.4354H25.2938ZM24.9538 12.5552C35.108 12.5552 37.2839 11.8444 36.5586 28.9041C35.8333 34.5907 31.0547 34.8909 25.2938 34.8909C15.2031 34.8909 13.7845 33.8799 13.5644 23.559C13.3146 11.8444 16.9755 12.5552 24.9538 12.5552ZM32.441 14.9787C31.554 14.9787 30.8348 15.6836 30.8348 16.5529C30.8348 17.4222 31.554 18.1271 32.441 18.1271C33.328 18.1271 34.0472 17.4222 34.0472 16.5529C34.0472 15.6836 33.328 14.9787 32.441 14.9787ZM25.2938 16.8195C21.4965 16.8195 18.4185 19.8375 18.4185 23.559C18.4185 27.2804 21.4965 30.297 25.2938 30.297C29.091 30.297 32.1675 27.2804 32.1675 23.559C32.1675 19.8375 29.091 16.8195 25.2938 16.8195ZM25.2938 19.1844C31.1944 19.1844 31.2019 27.9335 25.2938 27.9335C19.3947 27.9335 19.3856 19.1844 25.2938 19.1844Z" fill="white"/>
</svg>
