<svg width="17" height="16" viewBox="0 0 17 16" fill="none" xmlns="http://www.w3.org/2000/svg">
<path d="M1.32297 1.19989L1.19647 1.36131C0.987877 1.62746 0.81158 1.93696 0.679691 2.27299C0.556693 2.59758 0.482099 2.90177 0.448074 3.20295L0.447735 3.20595C0.143441 5.72852 1.27004 8.08862 4.60735 11.426C4.60736 11.426 4.60736 11.426 4.60737 11.426M1.32297 1.19989L4.32452 11.7088L4.60737 11.426M1.32297 1.19989L1.84342 0.676454C1.84353 0.676337 1.84365 0.67622 1.84377 0.676103C2.20879 0.311347 2.77228 0.3163 3.0983 0.642184C3.09832 0.642204 3.09833 0.642223 3.09835 0.642242L5.5747 3.11915C5.90146 3.44629 5.90628 4.00968 5.54162 4.37444L5.54149 4.37458L5.13018 4.78639L5.12979 4.78678L4.29279 5.62254L4.07639 5.83862L4.22816 6.10411C4.26412 6.16701 4.30046 6.23275 4.33974 6.30381C4.34628 6.31564 4.3529 6.32762 4.35962 6.33976L4.35995 6.34035L4.36487 6.34921C4.80516 7.14194 5.42607 8.25985 6.60165 9.43533C7.77791 10.6124 8.89777 11.233 9.69086 11.6725C9.77715 11.7209 9.85932 11.7666 9.9388 11.8104L10.2021 11.9555L10.4147 11.743L11.6624 10.4956L11.6625 10.4955C12.0262 10.1316 12.5898 10.1355 12.9175 10.4614C12.9177 10.4615 12.9178 10.4617 12.9179 10.4618L15.3934 12.9376C15.3935 12.9377 15.3936 12.9378 15.3937 12.9379C15.7199 13.2654 15.7245 13.8282 15.3621 14.1929L14.8022 14.7412L14.6749 14.8408C14.4083 15.0495 14.0984 15.2257 13.7652 15.3558C13.4544 15.4765 13.1509 15.5521 12.8341 15.5902C12.7126 15.6026 9.11681 15.9351 4.60737 11.426M1.32297 1.19989L4.60737 11.426M4.70963 6.14613C4.70306 6.13425 4.69653 6.12243 4.69003 6.11068C4.65084 6.03978 4.61293 5.97119 4.57542 5.90559L4.70963 6.14613Z" stroke="#956D84" stroke-width="0.8"/>
</svg>
