<svg width="50" height="50" viewBox="0 0 50 50" fill="none" xmlns="http://www.w3.org/2000/svg">
<circle cx="24.6602" cy="25.3398" r="24.6602" fill="#956D84"/>
<g clip-path="url(#clip0_95_5775)">
<path d="M27.3539 11.6736H22.1187C16.6354 11.6736 12.1743 16.1336 12.1743 21.6159V26.3318C12.1743 30.4145 14.683 34.0836 18.4553 35.578V38.6352C18.4553 38.8425 18.5773 39.0299 18.7667 39.1136C18.8348 39.144 18.907 39.1587 18.9787 39.1587C19.1059 39.1587 19.2321 39.1121 19.3299 39.0231L22.3652 36.2741H27.3539C32.8372 36.2741 37.2983 31.8141 37.2983 26.3318V21.6159C37.2983 16.1336 32.8372 11.6736 27.3539 11.6736ZM36.2514 26.3318C36.2514 31.2368 32.2604 35.2273 27.3539 35.2273H22.1632C22.0334 35.2273 21.9083 35.2754 21.812 35.3628L19.5021 37.4549V35.2152C19.5021 34.9933 19.3624 34.7955 19.153 34.7222C15.6053 33.4676 13.2211 30.0957 13.2211 26.3318V21.6159C13.2211 16.7109 17.2127 12.7204 22.1187 12.7204H27.3539C32.2604 12.7204 36.2514 16.7109 36.2514 21.6159V26.3318Z" fill="white"/>
<path d="M31.6537 27.634L28.4368 25.5445C28.085 25.3158 27.6663 25.2383 27.2565 25.3231C26.8461 25.4095 26.4933 25.6518 26.2646 26.0052L26.1133 26.2375C24.721 25.7775 23.1859 25.1897 22.2668 22.5291L22.6473 22.1984C23.3005 21.6304 23.3691 20.637 22.8012 19.9827L20.2846 17.0877C20.0951 16.8695 19.7643 16.847 19.546 17.0359L17.9658 18.4093C16.5798 19.6142 17.2273 21.3965 17.4403 21.9822C17.4498 22.0084 17.4613 22.0335 17.4749 22.0581C17.5298 22.1565 18.842 24.4982 20.9614 26.6568C23.089 28.8243 26.9304 30.8258 27.0482 30.8839C27.4868 31.1686 27.9804 31.3053 28.4687 31.3053C29.3261 31.3053 30.1667 30.885 30.6681 30.1145L31.8081 28.359C31.9651 28.1156 31.896 27.7916 31.6537 27.634ZM29.7898 29.544C29.3182 30.2705 28.3436 30.4767 27.5742 29.9805C27.536 29.9606 23.7198 27.9732 21.7083 25.924C19.8282 24.0088 18.5798 21.8812 18.4097 21.5844C17.9952 20.4219 18.0684 19.7074 18.6526 19.1997L19.8381 18.1696L22.0113 20.6695C22.2045 20.8914 22.182 21.2159 21.9611 21.408L21.3188 21.966C21.1623 22.102 21.1006 22.3172 21.1618 22.515C22.2568 26.0732 24.3861 26.772 25.9406 27.2823L26.1672 27.3571C26.3939 27.4336 26.642 27.3461 26.7718 27.1462L27.1429 26.5746C27.2193 26.4563 27.3366 26.3763 27.4726 26.3475C27.6093 26.3182 27.7485 26.3454 27.8668 26.4223L30.6451 28.2265L29.7898 29.544Z" fill="white"/>
<path d="M25.9312 20.1774C25.6527 20.0973 25.3633 20.259 25.2842 20.5375C25.2052 20.8154 25.3664 21.1049 25.6444 21.1839C26.4242 21.4058 27.0455 22.0282 27.2654 22.8086C27.3303 23.0389 27.5402 23.1901 27.7689 23.1901C27.816 23.1901 27.8636 23.1839 27.9113 23.1708C28.1892 23.0923 28.3515 22.8033 28.2729 22.5249C27.9552 21.3974 27.0576 20.4977 25.9312 20.1774Z" fill="white"/>
<path d="M29.9144 23.3034C29.9615 23.3034 30.0091 23.2971 30.0568 23.2841C30.3352 23.2056 30.497 22.9161 30.4184 22.6382C29.8008 20.4487 28.0584 18.7026 25.8705 18.0797C25.5926 17.9997 25.3031 18.1624 25.2241 18.4404C25.145 18.7183 25.3062 19.0078 25.5842 19.0868C27.425 19.6102 28.8911 21.0805 29.4109 22.9224C29.4763 23.1527 29.6857 23.3034 29.9144 23.3034Z" fill="white"/>
<path d="M25.6449 15.6421C25.3664 15.562 25.077 15.7237 24.9979 16.0027C24.9189 16.2806 25.0801 16.5701 25.358 16.6491C28.4771 17.5363 30.9617 20.0267 31.8421 23.1479C31.907 23.3782 32.1169 23.5294 32.3456 23.5294C32.3928 23.5294 32.4404 23.5231 32.488 23.5101C32.7659 23.4315 32.9282 23.1421 32.8497 22.8642C31.8714 19.3955 29.1109 16.6287 25.6449 15.6421Z" fill="white"/>
</g>
<defs>
<clipPath id="clip0_95_5775">
<rect width="27.4851" height="27.4851" fill="white" transform="translate(10.994 11.6736)"/>
</clipPath>
</defs>
</svg>
