<svg width="51" height="50" viewBox="0 0 51 50" fill="none" xmlns="http://www.w3.org/2000/svg">
<circle cx="25.4074" cy="24.6602" r="24.6602" fill="#956D84"/>
<g clip-path="url(#clip0_0_1)">
<path d="M36.5986 13.5827C36.281 13.1943 35.8053 12.9805 35.259 12.9805C34.962 12.9805 34.6474 13.043 34.3241 13.1665L12.3156 21.5679C11.1476 22.0136 10.9903 22.6825 11.0004 23.0415C11.0106 23.4005 11.2055 24.0595 12.3969 24.4386C12.4041 24.4408 12.4112 24.4429 12.4183 24.4449L16.9835 25.7514L19.4523 32.8111C19.789 33.7736 20.5445 34.3715 21.4245 34.3715C21.9793 34.3715 22.525 34.139 23.0027 33.6994L25.8264 31.0995L29.922 34.3973C29.9224 34.3977 29.923 34.3979 29.9234 34.3983L29.9623 34.4296C29.9658 34.4324 29.9696 34.4353 29.9732 34.4381C30.4284 34.7912 30.9253 34.9777 31.4107 34.9779H31.4109C32.3593 34.9779 33.1145 34.2759 33.3345 33.1896L36.9405 15.3837C37.0853 14.6689 36.9639 14.0294 36.5986 13.5827ZM18.5107 25.5032L27.3183 21.0037L21.8341 26.8311C21.7442 26.9265 21.6806 27.0433 21.6492 27.1705L20.5917 31.4539L18.5107 25.5032ZM21.9706 32.5787C21.9341 32.6122 21.8974 32.6421 21.8607 32.6697L22.8418 28.6961L24.6265 30.1332L21.9706 32.5787ZM35.4474 15.0811L31.8414 32.8873C31.8067 33.0577 31.6958 33.4542 31.4107 33.4542C31.2699 33.4542 31.093 33.3775 30.9118 33.238L26.2709 29.5012C26.2703 29.5006 26.2695 29.5 26.2687 29.4996L23.5073 27.276L31.4381 18.8489C31.692 18.5791 31.715 18.1659 31.4927 17.8696C31.2701 17.5732 30.8668 17.48 30.5369 17.6486L17.4929 24.3124L12.8657 22.9885L34.8674 14.5898C35.0533 14.5188 35.183 14.5039 35.259 14.5039C35.3056 14.5039 35.3885 14.5095 35.4193 14.5473C35.4597 14.5967 35.5113 14.7652 35.4474 15.0811Z" fill="white"/>
</g>
<defs>
<clipPath id="clip0_0_1">
<rect width="26" height="26" fill="white" transform="translate(11 11)"/>
</clipPath>
</defs>
</svg>