<svg width="26" height="26" viewBox="0 0 26 26" fill="none" xmlns="http://www.w3.org/2000/svg">
<g clip-path="url(#clip0_147_1313)">
<path d="M25.5986 2.5827C25.281 2.19431 24.8053 1.98047 24.259 1.98047C23.962 1.98047 23.6474 2.04295 23.3241 2.16653L1.31559 10.5679C0.147624 11.0136 -0.00967903 11.6825 0.000437535 12.0415C0.0105541 12.4005 0.205546 13.0595 1.39692 13.4386C1.40406 13.4408 1.4112 13.4429 1.41835 13.4449L5.9835 14.7514L8.45234 21.8111C8.78897 22.7736 9.54454 23.3715 10.4245 23.3715C10.9793 23.3715 11.525 23.139 12.0027 22.6994L14.8264 20.0995L18.922 23.3973C18.9224 23.3977 18.923 23.3979 18.9234 23.3983L18.9623 23.4296C18.9658 23.4324 18.9696 23.4353 18.9732 23.4381C19.4284 23.7912 19.9253 23.9777 20.4107 23.9779H20.4109C21.3593 23.9779 22.1145 23.2759 22.3345 22.1896L25.9405 4.38365C26.0853 3.66895 25.9639 3.02942 25.5986 2.5827ZM7.51071 14.5032L16.3183 10.0037L10.8341 15.8311C10.7442 15.9265 10.6806 16.0433 10.6492 16.1705L9.59175 20.4539L7.51071 14.5032ZM10.9706 21.5787C10.9341 21.6122 10.8974 21.6421 10.8607 21.6697L11.8418 17.6961L13.6265 19.1332L10.9706 21.5787ZM24.4474 4.08115L20.8414 21.8873C20.8067 22.0577 20.6958 22.4542 20.4107 22.4542C20.2699 22.4542 20.093 22.3775 19.9118 22.238L15.2709 18.5012C15.2703 18.5006 15.2695 18.5 15.2687 18.4996L12.5073 16.276L20.4381 7.84888C20.692 7.5791 20.715 7.16591 20.4927 6.86955C20.2701 6.5732 19.8668 6.47997 19.5369 6.64857L6.4929 13.3124L1.86566 11.9885L23.8674 3.5898C24.0533 3.51878 24.183 3.50391 24.259 3.50391C24.3056 3.50391 24.3885 3.50946 24.4193 3.54735C24.4597 3.59674 24.5113 3.76515 24.4474 4.08115Z" fill="white"/>
</g>
<defs>
<clipPath id="clip0_147_1313">
<rect width="26" height="26" fill="white"/>
</clipPath>
</defs>
</svg>
