<svg width="16" height="16" viewBox="0 0 16 16" fill="none" xmlns="http://www.w3.org/2000/svg">
<g id="facebook 1" clip-path="url(#clip0_40_3806)">
<path id="Vector" d="M9.0625 15.9688H6.50024C6.07227 15.9688 5.72412 15.6206 5.72412 15.1926V9.41333H4.22925C3.80127 9.41333 3.45312 9.06506 3.45312 8.63721V6.16077C3.45312 5.73279 3.80127 5.38464 4.22925 5.38464H5.72412V4.14453C5.72412 2.91492 6.11023 1.86877 6.84058 1.11938C7.57422 0.366577 8.59949 -0.03125 9.80554 -0.03125L11.7596 -0.0280762C12.1869 -0.0273437 12.5344 0.320801 12.5344 0.748047V3.04736C12.5344 3.47534 12.1864 3.82349 11.7585 3.82349L10.4429 3.82398C10.0416 3.82398 9.93945 3.90442 9.9176 3.92908C9.88159 3.96997 9.83875 4.08557 9.83875 4.40479V5.38452H11.6597C11.7968 5.38452 11.9296 5.41834 12.0437 5.48206C12.2899 5.61963 12.443 5.87976 12.443 6.16089L12.442 8.63733C12.442 9.06506 12.0939 9.41321 11.6659 9.41321H9.83875V15.1926C9.83875 15.6206 9.49048 15.9688 9.0625 15.9688ZM6.66211 15.0308H8.90064V8.99341C8.90064 8.70764 9.13318 8.47522 9.41882 8.47522H11.504L11.5049 6.32263H9.4187C9.13306 6.32263 8.90064 6.09021 8.90064 5.80444V4.40479C8.90064 4.03833 8.93787 3.62158 9.21448 3.30835C9.54871 2.92969 10.0754 2.88599 10.4426 2.88599L11.5964 2.8855V0.909668L9.80481 0.906738C7.86658 0.906738 6.66211 2.14746 6.66211 4.14453V5.80444C6.66211 6.09009 6.42969 6.32263 6.14404 6.32263H4.39111V8.47522H6.14404C6.42969 8.47522 6.66211 8.70764 6.66211 8.99341V15.0308ZM11.7578 0.909912H11.7579H11.7578Z" fill="white"/>
</g>
<defs>
<clipPath id="clip0_40_3806">
<rect width="15.9688" height="16" fill="white"/>
</clipPath>
</defs>
</svg>
